<svg width="52" height="50" viewBox="0 0 52 50" fill="none" xmlns="http://www.w3.org/2000/svg">
    <path d="M18.6427 0H35.8583V20.156H18.6427V0Z" fill="#FF0000"/>
    <path d="M22.4684 2.01562H39.6839V22.1717H22.4684V2.01562Z" fill="#05FF00"/>
    <path d="M26.294 6.04684H43.5096V26.2029H26.294V6.04684Z" fill="#0500FF"/>
    <path d="M30.1198 10.078H47.3353V30.2341H30.1198V10.078Z" fill="black"/>
    <path d="M29.2096 31.1827C30.4088 30.3168 31.2606 29.3921 31.7651 28.4088C32.2552 27.4033 32.5505 26.6689 32.651 26.2053L41.4925 29.888C41.3433 30.4193 41.0098 31.2139 40.4921 32.2719C39.9599 33.3078 39.1813 34.4402 38.1563 35.669C37.1523 36.8827 35.8614 38.0592 34.2835 39.1986C31.3171 41.3406 28.3262 42.637 25.311 43.0875C22.2813 43.5159 19.4289 43.0996 16.7537 41.8386C14.0995 40.5624 11.8209 38.4611 9.91778 35.5348C8.00027 32.5864 6.96292 29.5888 6.80572 26.5421C6.66955 23.4802 7.34498 20.549 8.83199 17.7485C10.3046 14.9259 12.5241 12.4435 15.4905 10.3015C17.0474 9.17729 18.5513 8.35198 20.0022 7.82555C21.4597 7.26176 22.7534 6.89772 23.8833 6.73342C24.9988 6.54696 25.8258 6.48737 26.3642 6.55466L26.3812 16.7072C26.133 16.6584 25.7154 16.6342 25.1282 16.6346C24.5621 16.6199 23.9019 16.722 23.1476 16.9408C22.3933 17.1597 21.5954 17.573 20.7538 18.1807C19.7229 18.9251 18.9354 19.901 18.3911 21.1085C17.868 22.3007 17.65 23.5821 17.7374 24.9525C17.8248 26.3229 18.2793 27.64 19.1011 28.9036C19.9229 30.1672 20.9317 31.1003 22.1275 31.7029C23.3088 32.2834 24.5216 32.5317 25.7656 32.4478C27.0307 32.3488 28.1787 31.9271 29.2096 31.1827Z" fill="black"/>
    <path d="M39.9061 10.2796H52.0001V14.2403H44.1813V18.3067H51.9283V22.1465H44.1813V26.2734H52.0001V30.2341H39.9061V10.2796Z" fill="black"/>
</svg>
